<?xml version="1.0" encoding="utf-8"?>
<?xml-stylesheet type="text/xsl" href="rss1.xsl"?>
<rss version="2.0" xmlns:atom="http://www.w3.org/2005/Atom" xmlns:content="http://purl.org/rss/1.0/modules/content/" xmlns:dc="http://purl.org/dc/elements/1.1/" xmlns:media="http://search.yahoo.com/mrss/">
<channel>
 <title>Getty</title>
 <link>http://www.gettyimg.com/</link>
 <atom:link href="http://www.gettyimg.com/" rel="self" type="application/rss+xml" />

 
                <item>
                <title><![CDATA[【HD Live Performances】FEED - Missy Elliot - Rock &amp; Roll Hall of Fame Induction Ceremony (2023) 720p HDTV]]></title>
                <link><![CDATA[https://sharemania.us/threads/missy-elliot-rock-roll-hall-of-fame-induction-ceremony-2023-720p-hdtv.243332/]]></link>
                <description><![CDATA[<article>
<blockquote class="messageText SelectQuoteContainer ugc baseHtml">
<img src="https://images2.imgbox.com/e5/ec/FTLoWcyY_o.jpg" class="bbCodeImage LbImage" alt="[​IMG]" data-url="https://images2.imgbox.com/e5/ec/FTLoWcyY_o.jpg" style=""> <br>
<br>
<b>Source</b>: Rock &amp; Roll Hall of Fame Induction Ceremony (2023) 720p HDTV Backhaul FLAC 5.1 H.264-TrollHD<br>
<br>
<div class="ToggleTriggerAnchor bbCodeSpoilerContainer">
<button type="button" class="button bbCodeSpoilerButton ToggleTrigger Tooltip JsOnly" data-target="> .SpoilerTarget"><span>Spoiler: <span class="SpoilerTitle">MediaInfo</span></span></button>
<div class="SpoilerTarget bbCodeSpoilerText">General<br>
Unique ID : 277210745958090550264987366761871664799 (0xD08CD8FFE55714FE5B67ADE6A543669F)<br>
Complete name : J:\VIDEO\Rock &amp; Roll Hall of Fame Induction Ceremony (2023) 720p HDTV Backhaul\Missy Elliot - Rock &amp; Roll Hall of Fame Induction Ceremony (2023) 720p HDTV Backhaul FLAC 5.1 H.264-TrollHD.mkv<br>
Format : Matroska<br>
Format version : Version 4<br>
File size : 1.65 GiB<br>
Duration : 7 min 7 s<br>
Overall bit rate mode : Variable<br>
Overall bit rate : 33.2 Mb/s<br>
Frame rate : 59.940 FPS<br>
Encoded date : 2024-01-15 11:24:08 UTC<br>
Writing application : mkvmerge v82.0 ('I'm The President') 64-bit<br>
Writing library : libebml v1.4.5 + libmatroska v1.7.1<br>
Video<br>
ID : 1<br>
Format : AVC<br>
Format/Info : Advanced Video Codec<br>
Format profile : High@L4.1<br>
Format settings : CABAC / 6 Ref Frames<br>
Format settings, CABAC : Yes<br>
Format settings, Reference frames : 6 frames<br>
Codec ID : V_MPEG4/ISO/AVC<br>
Duration : 7 min 7 s<br>
Bit rate : 31.2 Mb/s<br>
Width : 1 280 pixels<br>
Height : 720 pixels<br>
Display aspect ratio : 16:9<br>
Active Format Description : Full frame 16:9 image<br>
Frame rate mode : Constant<br>
Frame rate : 59.940 (60000/1001) FPS<br>
Color space : YUV<br>
Chroma subsampling : 4:2:0<br>
Bit depth : 8 bits<br>
Scan type : Progressive<br>
Bits/(Pixel*Frame) : 0.565<br>
Stream size : 1.55 GiB (94%)<br>
Default : Yes<br>
Forced : No<br>
Color range : Limited<br>
Color primaries : BT.709<br>
Transfer characteristics : BT.709<br>
Matrix coefficients : BT.709<br>
Audio<br>
ID : 2<br>
Format : FLAC<br>
Format/Info : Free Lossless Audio Codec<br>
Codec ID : A_FLAC<br>
Duration : 7 min 7 s<br>
Bit rate mode : Variable<br>
Bit rate : 1 993 kb/s<br>
Channel(s) : 6 channels<br>
Channel layout : L R C LFE Ls Rs<br>
Sampling rate : 48.0 kHz<br>
Frame rate : 11.719 FPS (4096 SPF)<br>
Bit depth : 16 bits<br>
Compression mode : Lossless<br>
Delay relative to video : 69 ms<br>
Stream size : 101 MiB (6%)<br>
Writing library : libFLAC 1.3.2 (2019-08-04)<br>
Language : English<br>
Default : Yes<br>
Forced : No<br>
MD5 of the unencoded content : B0F97BA7E6FEC34FAFE48012746D1F91</div>
</div>
<div class="bbCodeBlock bbCodeVfcHH HiddenContent">
<div class="attribution type">Hidden Content:</div>
<blockquote>You must reply before you can see the hidden data contained here.</blockquote>
</div>
<div class="messageTextEndMarker">&nbsp;</div>
</blockquote>
</article>]]></description>
                <author><![CDATA[Gizmo234]]></author>
                </item>

                </channel></rss>